<svg width="346" height="161" viewBox="0 0 346 161" fill="none" xmlns="http://www.w3.org/2000/svg">
<path d="M0 10C0 4.47715 4.47715 0 10 0H336C341.523 0 346 4.49122 346 10.0141C346 63.5248 346 97.4752 346 150.986C346 156.509 341.523 161 336 161H10C4.47716 161 0 156.523 0 151V10Z" fill="black"/>
<path d="M0 10C0 4.47715 4.47715 0 10 0H336C341.523 0 346 4.49122 346 10.0141C346 63.5248 346 97.4752 346 150.986C346 156.509 341.523 161 336 161H10C4.47716 161 0 156.523 0 151V10Z" fill="gray"/>
</svg>
